<svg width="72" height="71" viewBox="0 0 72 71" fill="none" xmlns="http://www.w3.org/2000/svg">
<path d="M71.0024 35.7457C71.0024 15.8082 55.1943 0 35.2568 0C16.191 0 0.382812 15.8082 0.382812 35.7457C0.382812 54.8115 16.191 70.6196 35.2568 70.6196C55.1943 70.6196 71.0024 54.8115 71.0024 35.7457Z" fill="#E9EEFE"/>
<path d="M50.5375 32.6391L44.5 30.3766V23.5953C44.5 22.6578 43.9188 21.8203 43.0375 21.4891L36.7875 19.1453C36.2812 18.9516 35.7188 18.9516 35.2063 19.1453L28.9563 21.4891C28.075 21.8203 27.4938 22.6578 27.4938 23.5953V30.3766L21.4562 32.6391C20.5812 32.9703 20 33.8078 20 34.7453V41.6266C20 42.4766 20.4812 43.2578 21.2437 43.6391L27.4938 46.7641C28.125 47.0828 28.875 47.0828 29.5063 46.7641L36 43.5141L42.4937 46.7641C43.125 47.0828 43.875 47.0828 44.5063 46.7641L50.7563 43.6391C51.5188 43.2578 52 42.4766 52 41.6266V34.7453C52 33.8078 51.4188 32.9703 50.5375 32.6391ZM42.375 30.4266L37.0625 32.4203V28.1578L42.375 25.8453V30.4266ZM29.625 23.5078L36 21.1203L42.375 23.5078V23.5453L36 26.1328L29.625 23.5453V23.5078ZM34.875 41.7016L29.5625 44.3578V39.4141L34.875 36.9891V41.7016ZM34.875 34.7016L28.5 37.2891L22.125 34.7016V34.6641L28.5 32.2766L34.875 34.6641V34.7016ZM49.875 41.7016L44.5625 44.3578V39.4141L49.875 36.9891V41.7016ZM49.875 34.7016L43.5 37.2891L37.125 34.7016V34.6641L43.5 32.2766L49.875 34.6641V34.7016Z" fill="#0060FF"/>
</svg>
