<svg width="60" height="60" viewBox="0 0 60 60" fill="none" xmlns="http://www.w3.org/2000/svg">
<circle cx="30" cy="30" r="30" fill="#0060FF"/>
<path d="M25.6562 26.0782H35.3437C35.879 26.0782 36.3125 25.6447 36.3125 25.1095V24.1407C36.3125 23.6055 35.879 23.172 35.3437 23.172H25.6562C25.121 23.172 24.6875 23.6055 24.6875 24.1407V25.1095C24.6875 25.6447 25.121 26.0782 25.6562 26.0782ZM24.6875 30.922C24.6875 31.4572 25.121 31.8907 25.6562 31.8907H35.3437C35.879 31.8907 36.3125 31.4572 36.3125 30.922V29.9532C36.3125 29.418 35.879 28.9845 35.3437 28.9845H25.6562C25.121 28.9845 24.6875 29.418 24.6875 29.9532V30.922ZM30.5 38.256C29.5058 38.256 28.5116 37.9496 27.6628 37.3362L15 28.1889V41.0938C15 42.6989 16.3012 44 17.9062 44H43.0937C44.6988 44 46 42.6989 46 41.0938V28.1889L33.3372 37.3362C32.4884 37.949 31.4942 38.256 30.5 38.256ZM44.8865 22.8662C44.3507 22.446 43.8427 22.0507 43.0937 21.4852V18.8127C43.0937 17.2076 41.7926 15.9064 40.1875 15.9064H35.4921C35.308 15.7732 35.1367 15.6485 34.9447 15.5092C33.927 14.7663 31.9047 12.979 30.5 13.0002C29.0953 12.979 27.0737 14.7663 26.0553 15.5092C25.8633 15.6485 25.692 15.7732 25.5079 15.9064H20.8125C19.2074 15.9064 17.9062 17.2076 17.9062 18.8127V21.4852C17.1573 22.0501 16.6493 22.446 16.1135 22.8662C15.7666 23.1381 15.4861 23.4852 15.2932 23.8814C15.1003 24.2776 15.0001 24.7124 15 25.1531V25.7979L20.8125 29.9968V18.8127H40.1875V29.9968L46 25.7979V25.1531C46 24.2606 45.5895 23.4172 44.8865 22.8662V22.8662Z" fill="white"/>
</svg>
