<svg width="71" height="71" viewBox="0 0 71 71" fill="none" xmlns="http://www.w3.org/2000/svg">
<path d="M70.6196 35.7457C70.6196 15.8082 54.8115 0 34.8739 0C15.8082 0 0 15.8082 0 35.7457C0 54.8115 15.8082 70.6196 34.8739 70.6196C54.8115 70.6196 70.6196 54.8115 70.6196 35.7457Z" fill="#E9EEFE"/>
<path d="M51 30.0001C51 36.0752 46.0751 41 40 41C39.2987 41 38.6131 40.9336 37.9483 40.8082L36.4476 42.4966C36.3068 42.6549 36.1342 42.7816 35.9409 42.8684C35.7477 42.9551 35.5383 43 35.3264 43H33V45.5C33 46.3284 32.3284 47 31.5 47H29V49.5C29 50.3284 28.3284 51 27.5 51H20.5C19.6716 51 19 50.3284 19 49.5V44.6213C19 44.2235 19.1581 43.8419 19.4393 43.5606L29.5519 33.448C29.1942 32.3634 29 31.2044 29 30C29 23.9249 33.9248 19.0001 39.9999 19C46.093 18.9999 51 23.9069 51 30.0001ZM40 27C40 28.6569 41.3431 30 43 30C44.6569 30 46 28.6569 46 27C46 25.3431 44.6569 24 43 24C41.3431 24 40 25.3431 40 27Z" fill="#0060FF"/>
</svg>
