<svg width="61" height="61" viewBox="0 0 61 61" fill="none" xmlns="http://www.w3.org/2000/svg">
<path d="M30.5 0.953125C14.1829 0.953125 0.953125 14.1876 0.953125 30.5C0.953125 46.8219 14.1829 60.0469 30.5 60.0469C46.8171 60.0469 60.0469 46.8219 60.0469 30.5C60.0469 14.1876 46.8171 0.953125 30.5 0.953125ZM30.5 14.0586C33.2636 14.0586 35.5039 16.2989 35.5039 19.0625C35.5039 21.8261 33.2636 24.0664 30.5 24.0664C27.7364 24.0664 25.4961 21.8261 25.4961 19.0625C25.4961 16.2989 27.7364 14.0586 30.5 14.0586ZM37.1719 44.3203C37.1719 45.1099 36.5317 45.75 35.7422 45.75H25.2578C24.4683 45.75 23.8281 45.1099 23.8281 44.3203V41.4609C23.8281 40.6714 24.4683 40.0312 25.2578 40.0312H26.6875V32.4062H25.2578C24.4683 32.4062 23.8281 31.7661 23.8281 30.9766V28.1172C23.8281 27.3276 24.4683 26.6875 25.2578 26.6875H32.8828C33.6724 26.6875 34.3125 27.3276 34.3125 28.1172V40.0312H35.7422C36.5317 40.0312 37.1719 40.6714 37.1719 41.4609V44.3203Z" fill="#0060FF"/>
</svg>
