<svg width="150" height="54" viewBox="0 0 150 54" fill="none" xmlns="http://www.w3.org/2000/svg">
<path d="M18.5596 11.2667C18.5596 12.9714 18.3048 14.5038 17.7951 15.864C17.2855 17.2259 16.5696 18.3833 15.6454 19.3397C14.7213 20.2962 13.6142 21.0283 12.3258 21.5379C11.0374 22.0475 9.60906 22.3023 8.04074 22.3023H0V0.249023H8.04074C9.60906 0.249023 11.0374 0.50383 12.3258 1.01344C13.6142 1.52305 14.7195 2.25517 15.6454 3.21159C16.5696 4.16801 17.2873 5.32541 17.7951 6.68736C18.3048 8.04573 18.5596 9.57277 18.5596 11.2667ZM16.9069 11.2667C16.9069 9.72888 16.6934 8.35796 16.2681 7.15211C15.8428 5.94627 15.2417 4.92884 14.4683 4.09803C13.6949 3.26722 12.7618 2.63379 11.6708 2.19596C10.5798 1.75992 9.36861 1.541 8.03895 1.541H1.60241V21.0049H8.03895C9.36861 21.0049 10.5798 20.786 11.6708 20.35C12.7618 19.9139 13.6949 19.2805 14.4683 18.4479C15.2417 17.6171 15.8428 16.5979 16.2681 15.3938C16.6952 14.1916 16.9069 12.8153 16.9069 11.2667Z" fill="white"/>
<path d="M25.8677 22.3005H24.2617V0.249023H25.8677V22.3005Z" fill="white"/>
<path d="M35.0625 12.3272V22.3005H33.4727V0.249023H39.0981C41.6426 0.249023 43.5447 0.740691 44.8026 1.72223C46.0586 2.70377 46.6885 4.14468 46.6885 6.04676C46.6885 6.88834 46.5431 7.65814 46.2524 8.35257C45.9617 9.0488 45.5436 9.6589 44.9981 10.1829C44.4526 10.7068 43.7959 11.1393 43.0261 11.4766C42.2563 11.814 41.3896 12.0347 40.4242 12.1388C40.6736 12.2949 40.8961 12.503 41.0935 12.7614L48.6839 22.2987H47.2968C47.1299 22.2987 46.9881 22.2682 46.8679 22.2054C46.7477 22.1426 46.6311 22.0385 46.518 21.8932L39.4588 12.9481C39.2812 12.7202 39.0927 12.5587 38.89 12.4654C38.6872 12.372 38.3732 12.3254 37.9479 12.3254H35.0625V12.3272ZM35.0625 11.1429H38.8954C39.8715 11.1429 40.7472 11.0262 41.5206 10.793C42.294 10.5597 42.9489 10.2241 43.4837 9.7881C44.0184 9.35206 44.4257 8.82809 44.7074 8.2144C44.9874 7.60072 45.1273 6.90987 45.1273 6.14186C45.1273 4.57355 44.6123 3.40898 43.5841 2.65174C42.556 1.8927 41.0594 1.51408 39.0963 1.51408H35.0607V11.1429H35.0625Z" fill="white"/>
<path d="M65.8867 0.249023V1.5733H54.2769V10.4879H63.9398V11.7817H54.2769V20.9762H65.8867V22.3005H52.6709V0.249023H65.8867Z" fill="white"/>
<path d="M87.1127 18.5917C87.2168 18.5917 87.3047 18.6276 87.3783 18.7012L88.0009 19.3705C87.5434 19.8586 87.0445 20.2982 86.5044 20.6876C85.9643 21.077 85.3739 21.4089 84.7351 21.6853C84.0963 21.9598 83.3947 22.1733 82.6321 22.3241C81.8694 22.4748 81.0297 22.5502 80.1145 22.5502C78.5875 22.5502 77.1878 22.2828 75.9138 21.7481C74.6416 21.2133 73.5506 20.4543 72.6408 19.4728C71.731 18.4912 71.0222 17.3033 70.5144 15.9126C70.0048 14.5202 69.75 12.9734 69.75 11.2687C69.75 9.59633 70.012 8.06929 70.5377 6.68759C71.0617 5.3059 71.801 4.11979 72.7503 3.12748C73.7013 2.13518 74.8389 1.36717 76.1632 0.821668C77.4875 0.276168 78.9499 0.00341797 80.5505 0.00341797C81.3509 0.00341797 82.083 0.0626335 82.7487 0.182859C83.4144 0.303084 84.0335 0.473553 84.6113 0.697854C85.1873 0.922155 85.731 1.19849 86.2406 1.53225C86.7502 1.86422 87.2491 2.24822 87.7372 2.68606L87.2545 3.38767C87.1701 3.51149 87.0409 3.57429 86.8651 3.57429C86.7718 3.57429 86.6515 3.52046 86.5062 3.411C86.3608 3.30154 86.176 3.16696 85.9535 3.00546C85.7292 2.84397 85.46 2.66811 85.1424 2.47611C84.8248 2.28411 84.4498 2.10826 84.012 1.94676C83.5759 1.78527 83.0717 1.65069 82.5011 1.54123C81.9287 1.43177 81.2791 1.37794 80.5523 1.37794C79.2119 1.37794 77.981 1.60941 76.8594 2.07058C75.7379 2.53353 74.7708 3.19208 73.9615 4.04981C73.1504 4.90754 72.5206 5.9465 72.0684 7.1667C71.6162 8.3869 71.3901 9.75603 71.3901 11.2723C71.3901 12.8299 71.6126 14.2223 72.0594 15.4497C72.5062 16.6753 73.1235 17.7124 73.9148 18.5594C74.7044 19.4064 75.6375 20.0559 76.7123 20.5081C77.7872 20.9603 78.9535 21.1864 80.2114 21.1864C81.0009 21.1864 81.7044 21.1344 82.3234 21.0303C82.9407 20.9262 83.5095 20.7701 84.0299 20.562C84.5485 20.3538 85.033 20.099 85.4798 19.7975C85.9266 19.4961 86.368 19.1426 86.8041 18.737C86.8561 18.6958 86.9045 18.6617 86.953 18.6366C86.9961 18.6043 87.0499 18.5917 87.1127 18.5917Z" fill="white"/>
<path d="M107.419 0.249023V1.6056H99.6741V22.3005H98.0843V1.6056H90.293V0.249023H107.419Z" fill="white"/>
<path d="M39.0376 53.5666H37.8066C37.6613 53.5666 37.541 53.5271 37.4477 53.45C37.3544 53.371 37.2809 53.2705 37.2288 53.1467L34.6269 46.7425H23.7959L21.2083 53.1467C21.1671 53.2616 21.0935 53.3603 20.9894 53.4428C20.8853 53.5254 20.7615 53.5666 20.6162 53.5666H19.4014L28.4254 31.5151H30.0153L39.0376 53.5666ZM24.2786 45.5564H34.1586L29.6546 34.4131C29.581 34.2373 29.5093 34.0363 29.4357 33.8138C29.3621 33.5913 29.2904 33.3544 29.2168 33.105C29.1432 33.3544 29.0714 33.5913 28.9979 33.8138C28.9243 34.0381 28.8525 34.2426 28.7789 34.4293L24.2786 45.5564Z" fill="white"/>
<path d="M49.7748 52.4291C50.8353 52.4291 51.7828 52.2443 52.619 51.8764C53.4552 51.5086 54.164 50.9954 54.7454 50.3422C55.3267 49.6873 55.7718 48.9157 56.0786 48.0274C56.3854 47.1392 56.538 46.181 56.538 45.1528V31.5171H58.1278V45.1528C58.1278 46.3676 57.9358 47.5035 57.5518 48.5586C57.1678 49.6137 56.6133 50.5324 55.892 51.3166C55.1706 52.1008 54.2914 52.7162 53.2578 53.163C52.2242 53.6098 51.0632 53.8324 49.7748 53.8324C48.4865 53.8324 47.3255 53.6081 46.2919 53.163C45.2583 52.7162 44.3809 52.1008 43.6577 51.3166C42.9364 50.5324 42.3819 49.6137 41.9979 48.5586C41.6139 47.5035 41.4219 46.3694 41.4219 45.1528V31.5171H43.0279V45.1367C43.0279 46.1648 43.1804 47.1231 43.4872 48.0113C43.7941 48.8995 44.2355 49.6711 44.8115 50.3261C45.3875 50.981 46.0945 51.4942 46.9307 51.8693C47.7669 52.2425 48.7144 52.4291 49.7748 52.4291Z" fill="white"/>
<path d="M78.8856 31.5151V32.8717H71.1409V53.5666H69.5511V32.8717H61.7598V31.5151H78.8856Z" fill="white"/>
<path d="M99.7205 53.5666H98.1163V43.0011H84.3083V53.5666H82.7041V31.5151H84.3083V41.8007H98.1163V31.5151H99.7205V53.5666Z" fill="white"/>
<path d="M115.034 33.3546C118.68 33.3546 121.636 30.399 121.636 26.753C121.636 23.107 118.68 20.1514 115.034 20.1514C111.388 20.1514 108.433 23.107 108.433 26.753C108.433 30.399 111.388 33.3546 115.034 33.3546Z" fill="white"/>
<path d="M123.247 0L150 26.7528L123.185 53.5667L113.845 44.2268L131.319 26.7528L113.908 9.34169L123.247 0Z" fill="white"/>
</svg>
