<svg width="72" height="71" viewBox="0 0 72 71" fill="none" xmlns="http://www.w3.org/2000/svg">
<path d="M71.0024 35.9195C71.0024 15.982 55.1943 0.173828 35.2568 0.173828C16.191 0.173828 0.382812 15.982 0.382812 35.9195C0.382812 54.9853 16.191 70.7934 35.2568 70.7934C55.1943 70.7934 71.0024 54.9853 71.0024 35.9195Z" fill="#E9EEFE"/>
<path d="M44.4 16H27.6C25.6125 16 24 17.6125 24 19.6V50.8C24 52.7875 25.6125 54.4 27.6 54.4H44.4C46.3875 54.4 48 52.7875 48 50.8V19.6C48 17.6125 46.3875 16 44.4 16ZM36 52C34.6725 52 33.6 50.9275 33.6 49.6C33.6 48.2725 34.6725 47.2 36 47.2C37.3275 47.2 38.4 48.2725 38.4 49.6C38.4 50.9275 37.3275 52 36 52ZM44.4 43.9C44.4 44.395 43.995 44.8 43.5 44.8H28.5C28.005 44.8 27.6 44.395 27.6 43.9V20.5C27.6 20.005 28.005 19.6 28.5 19.6H43.5C43.995 19.6 44.4 20.005 44.4 20.5V43.9Z" fill="#0060FF"/>
</svg>
