<svg width="60" height="60" viewBox="0 0 60 60" fill="none" xmlns="http://www.w3.org/2000/svg">
<path fill-rule="evenodd" clip-rule="evenodd" d="M30 0C46.5685 0 60 13.4315 60 30C60 46.5685 46.5685 60 30 60C13.4315 60 0 46.5685 0 30C0 13.4315 13.4315 0 30 0ZM42.6504 18.2261L13.7529 29.3688C11.7804 30.16 11.7919 31.2605 13.3934 31.7508L20.8091 34.0654L37.9774 23.2341C38.7878 22.7427 39.5317 23.0069 38.9212 23.5488L25.0105 36.1018L24.5 43.75C25.25 43.75 25.5814 43.407 26 43L29.6043 39.4957L37.1 45.0348C38.4796 45.796 39.4754 45.4019 39.819 43.7539L44.7403 20.5631C45.2441 18.5431 43.9702 17.6269 42.6504 18.2261Z" fill="#0060FF"/>
</svg>
