<svg width="72" height="71" viewBox="0 0 72 71" fill="none" xmlns="http://www.w3.org/2000/svg">
<path d="M71.0024 35.7457C71.0024 15.8082 55.1943 0 35.2568 0C16.191 0 0.382812 15.8082 0.382812 35.7457C0.382812 54.8115 16.191 70.6196 35.2568 70.6196C55.1943 70.6196 71.0024 54.8115 71.0024 35.7457Z" fill="#E9EEFE"/>
<path d="M36.5069 34.8921C35.7046 34.8921 35.0537 35.5424 35.0537 36.3452C35.1228 40.7197 34.5609 44.9368 33.3766 49.1539C33.2113 49.7424 33.5067 51 34.7764 51C35.411 51 35.994 50.581 36.1745 49.9392C36.9937 47.0384 38.0539 42.346 37.9594 36.3452C37.96 35.543 37.3097 34.8921 36.5069 34.8921ZM36.4548 29.9436C32.7457 29.9394 30.1573 32.7936 30.2087 36.0643C30.2541 38.9669 29.9817 41.8713 29.3992 44.6953C29.2363 45.4812 29.7425 46.2507 30.5278 46.4124C31.3179 46.574 32.0821 46.0697 32.2449 45.2838C32.871 42.251 33.1634 39.1334 33.115 36.0189C33.0902 34.4477 34.3211 32.8408 36.4118 32.8499C38.3076 32.8783 39.8721 34.3841 39.9006 36.2084C39.9472 39.1177 39.7304 42.0409 39.2582 44.8999C39.1268 45.6906 39.6632 46.439 40.4546 46.5698C41.6637 46.7714 42.0779 45.6555 42.1245 45.3728C42.6258 42.3436 42.8547 39.2448 42.8069 36.163C42.7536 32.7845 39.9042 29.9945 36.4548 29.9436ZM29.7528 28.746C29.1292 28.241 28.2167 28.3343 27.7087 28.9567C26.1575 30.8639 25.3237 33.2725 25.3625 35.7379C25.3982 38.0133 25.2129 40.2953 24.8109 42.5222C24.6692 43.3124 25.193 44.068 25.9831 44.2109C27.2007 44.4228 27.6221 43.3142 27.6718 43.0387C28.1071 40.6265 28.3075 38.155 28.2688 35.6925C28.2403 33.8834 28.8258 32.1881 29.9641 30.7901C30.4697 30.1676 30.3752 29.2528 29.7528 28.746ZM36.3809 24.9721C35.4479 24.9473 34.5118 25.0593 33.6091 25.273C32.8286 25.4583 32.3454 26.2406 32.5295 27.0222C32.7148 27.8027 33.4983 28.2834 34.2787 28.1018C34.9478 27.9437 35.6392 27.8735 36.3373 27.8784C40.9044 27.9468 44.6766 31.602 44.7462 36.0268C44.7819 38.3203 44.6687 40.635 44.4083 42.9067C44.3175 43.7041 44.8897 44.4252 45.6865 44.516C46.6989 44.6341 47.2311 43.7967 47.2959 43.2379C47.571 40.8293 47.6901 38.4054 47.6525 35.9813C47.558 30.0023 42.5017 25.0629 36.3809 24.9721ZM51.6432 32.3255C51.47 31.5433 50.7041 31.0419 49.9109 31.2193C49.1274 31.3925 48.6321 32.1675 48.8053 32.9516C49.0905 34.2479 49.1026 35.2166 49.0899 36.6813C49.0832 37.4847 49.7287 38.1398 50.5309 38.1465H50.543C51.3404 38.1465 51.9895 37.5041 51.9962 36.7055C52.0071 35.3626 52.0204 34.0348 51.6432 32.3255ZM49.214 26.8327C46.2653 22.6314 41.4403 20.0781 36.3065 20.0012C32.0808 19.9503 28.1725 21.5082 25.2656 24.4163C22.458 27.2275 20.9449 30.9614 21.0079 34.9339L21.0006 36.2338C20.977 37.0361 21.6079 37.7057 22.4102 37.7287C22.4241 37.7299 22.4393 37.7299 22.4538 37.7299C23.2361 37.7299 23.8821 37.1063 23.9051 36.3192L23.9148 34.8879C23.8645 31.7092 25.0749 28.7206 27.3224 26.4719C29.6692 24.1226 32.8528 22.859 36.2641 22.9081C40.4691 22.9704 44.4217 25.0611 46.8369 28.502C47.2977 29.1595 48.2029 29.3163 48.8604 28.8568C49.5167 28.3954 49.6754 27.489 49.214 26.8327Z" fill="#0060FF"/>
</svg>
