<svg width="71" height="72" viewBox="0 0 71 72" fill="none" xmlns="http://www.w3.org/2000/svg">
<path d="M70.6196 36.3326C70.6196 16.3951 54.8115 0.586914 34.8739 0.586914C15.8082 0.586914 0 16.3951 0 36.3326C0 55.3984 15.8082 71.2065 34.8739 71.2065C54.8115 71.2065 70.6196 55.3984 70.6196 36.3326Z" fill="#E9EEFE"/>
<path d="M51.5282 40.667C51.6582 39.9619 51.6582 39.2418 51.5282 38.5367L52.8184 37.7917C52.9684 37.7067 53.0334 37.5316 52.9834 37.3666C52.6483 36.2865 52.0733 35.3064 51.3232 34.4963C51.2082 34.3713 51.0232 34.3413 50.8732 34.4263L49.583 35.1714C49.038 34.7063 48.4129 34.3463 47.7378 34.1063V32.6161C47.7378 32.4461 47.6178 32.2961 47.4528 32.2611C46.3377 32.0111 45.2026 32.0211 44.1424 32.2611C43.9774 32.2961 43.8574 32.4461 43.8574 32.6161V34.1063C43.1823 34.3463 42.5573 34.7063 42.0122 35.1714L40.7221 34.4263C40.5771 34.3413 40.387 34.3713 40.272 34.4963C39.522 35.3064 38.9469 36.2865 38.6119 37.3666C38.5619 37.5316 38.6319 37.7067 38.7769 37.7917L40.067 38.5367C39.937 39.2418 39.937 39.9619 40.067 40.667L38.7769 41.412C38.6269 41.4971 38.5619 41.6721 38.6119 41.8371C38.9469 42.9172 39.522 43.8923 40.272 44.7074C40.387 44.8324 40.5721 44.8624 40.7221 44.7774L42.0122 44.0323C42.5573 44.4974 43.1823 44.8574 43.8574 45.0974V46.5876C43.8574 46.7576 43.9774 46.9076 44.1424 46.9426C45.2576 47.1927 46.3927 47.1827 47.4528 46.9426C47.6178 46.9076 47.7378 46.7576 47.7378 46.5876V45.0974C48.4129 44.8574 49.038 44.4974 49.583 44.0323L50.8732 44.7774C51.0182 44.8624 51.2082 44.8324 51.3232 44.7074C52.0733 43.8973 52.6483 42.9172 52.9834 41.8371C53.0334 41.6721 52.9634 41.4971 52.8184 41.412L51.5282 40.667ZM45.8026 42.0271C44.4625 42.0271 43.3774 40.937 43.3774 39.6019C43.3774 38.2667 44.4675 37.1766 45.8026 37.1766C47.1378 37.1766 48.2279 38.2667 48.2279 39.6019C48.2279 40.937 47.1428 42.0271 45.8026 42.0271ZM32.2012 34.8013C35.7366 34.8013 38.6019 31.936 38.6019 28.4007C38.6019 24.8653 35.7366 22 32.2012 22C28.6658 22 25.8005 24.8653 25.8005 28.4007C25.8005 31.936 28.6658 34.8013 32.2012 34.8013ZM42.2622 46.1275C42.1472 46.0675 42.0322 45.9975 41.9222 45.9325L41.5272 46.1625C41.2271 46.3326 40.8871 46.4276 40.5471 46.4276C40.002 46.4276 39.4769 46.1976 39.1019 45.7975C38.1868 44.8074 37.4867 43.6023 37.0917 42.3171C36.8167 41.432 37.1867 40.497 37.9868 40.0319L38.3818 39.8019C38.3768 39.6719 38.3768 39.5418 38.3818 39.4118L37.9868 39.1818C37.1867 38.7218 36.8167 37.7817 37.0917 36.8966C37.1367 36.7516 37.2017 36.6065 37.2517 36.4615C37.0617 36.4465 36.8767 36.4015 36.6817 36.4015H35.8466C34.7364 36.9116 33.5013 37.2016 32.2012 37.2016C30.901 37.2016 29.6709 36.9116 28.5558 36.4015H27.7207C24.0103 36.4015 21 39.4118 21 43.1222V45.2024C21 46.5276 22.0751 47.6027 23.4003 47.6027H41.0021C41.5072 47.6027 41.9772 47.4427 42.3623 47.1777C42.3022 46.9876 42.2622 46.7926 42.2622 46.5876V46.1275Z" fill="#0060FF"/>
</svg>
